<svg xmlns="http://www.w3.org/2000/svg" viewBox="0 0 24 24"><defs><linearGradient id="button-record_svg__a"><stop offset="0" stop-color="#ff5606"/><stop offset="1" stop-color="#ad1a0c"/></linearGradient><linearGradient id="button-record_svg__b"><stop offset="0" stop-color="#fa0"/><stop offset="1" stop-color="#ff4300" stop-opacity="0"/></linearGradient><linearGradient id="button-record_svg__c"><stop offset="0" stop-color="#fff" stop-opacity="0"/><stop offset="1" stop-color="#fff"/></linearGradient><linearGradient xmlns:xlink="http://www.w3.org/1999/xlink" xlink:href="#button-record_svg__a" id="button-record_svg__e" gradientUnits="userSpaceOnUse" gradientTransform="matrix(.1728 0 0 .1728 -102.149 394.4)" x1="233.345" y1="407.885" x2="233.345" y2="272.777"/><linearGradient xmlns:xlink="http://www.w3.org/1999/xlink" xlink:href="#button-record_svg__c" id="button-record_svg__g" gradientUnits="userSpaceOnUse" gradientTransform="matrix(.21152 0 0 .23082 -106.753 381.615)" x1="214.655" y1="325.189" x2="214.655" y2="258.26"/><radialGradient xmlns:xlink="http://www.w3.org/1999/xlink" xlink:href="#button-record_svg__b" id="button-record_svg__f" gradientUnits="userSpaceOnUse" gradientTransform="matrix(.29898 0 0 .38104 -125.515 313.771)" cx="214.91" cy="390.052" fx="214.91" fy="390.052" r="45.709"/><filter id="button-record_svg__d" color-interpolation-filters="sRGB"><feGaussianBlur stdDeviation="2 2" result="blur"/></filter></defs><g transform="matrix(.84917 0 0 .84917 64.096 -372.627)"><circle cx="104.189" cy="309.808" r="13.98" transform="matrix(.84234 0 0 .84234 -149.112 191.977)" fill="#6d7e3d" filter="url(#button-record_svg__d)"/><circle r="12" cy="452.878" cx="-61.349" fill="url(#button-record_svg__e)"/><ellipse ry="9.6" rx="10.167" cy="454.58" cx="-61.261" fill="url(#button-record_svg__f)"/><path d="M-52.149 450.909a9.294 7.636 0 01-10.192 6.507 9.294 7.636 0 01-8.279-8.136 9.294 7.636 0 019.603-7.088 9.294 7.636 0 018.963 7.632" fill="url(#button-record_svg__g)"/><path d="M-61.173 455.596a2.415 2.415 0 002.405-2.41v-5.281a2.415 2.415 0 00-2.405-2.41 2.415 2.415 0 00-2.405 2.41v5.28a2.415 2.415 0 002.405 2.41zm4.249-2.647c0 2.41-2.044 4.097-4.249 4.097-2.204 0-4.249-1.687-4.249-4.097h-1.363c0 2.732 2.165 5.021 4.81 5.383v2.875h1.604v-2.875c2.645-.402 4.81-2.651 4.81-5.383z" fill="#520303" fill-opacity="0.309"/></g></svg>