<svg xmlns="http://www.w3.org/2000/svg" viewBox="0 0 24 24"><defs><linearGradient id="button-retry_svg__a"><stop offset="0" stop-color="#ff5606"/><stop offset="1" stop-color="#ad1a0c"/></linearGradient><linearGradient id="button-retry_svg__b"><stop offset="0" stop-color="#fa0"/><stop offset="1" stop-color="#ff4300" stop-opacity="0"/></linearGradient><linearGradient id="button-retry_svg__c"><stop offset="0" stop-color="#fff" stop-opacity="0"/><stop offset="1" stop-color="#fff"/></linearGradient><linearGradient xmlns:xlink="http://www.w3.org/1999/xlink" xlink:href="#button-retry_svg__a" id="button-retry_svg__e" gradientUnits="userSpaceOnUse" gradientTransform="matrix(.2565 0 0 .2565 -114.445 435.626)" x1="233.345" y1="407.885" x2="233.345" y2="272.777"/><linearGradient xmlns:xlink="http://www.w3.org/1999/xlink" xlink:href="#button-retry_svg__c" id="button-retry_svg__g" gradientUnits="userSpaceOnUse" gradientTransform="matrix(.31398 0 0 .34264 -121.28 416.648)" x1="214.655" y1="325.189" x2="214.655" y2="258.26"/><radialGradient xmlns:xlink="http://www.w3.org/1999/xlink" xlink:href="#button-retry_svg__b" id="button-retry_svg__f" gradientUnits="userSpaceOnUse" gradientTransform="matrix(.44381 0 0 .56562 -149.13 315.94)" cx="214.91" cy="390.052" fx="214.91" fy="390.052" r="45.709"/><filter id="button-retry_svg__d" color-interpolation-filters="sRGB"><feGaussianBlur stdDeviation="2 2" result="blur"/></filter></defs><g transform="matrix(.57206 0 0 .57206 42.823 -286.916)"><circle cx="104.189" cy="309.808" r="13.98" transform="matrix(1.2504 0 0 1.2504 -184.158 135.146)" fill="#6d7e3d" filter="url(#button-retry_svg__d)"/><circle r="17.813" cy="522.433" cx="-53.881" fill="url(#button-retry_svg__e)"/><ellipse ry="14.25" rx="15.093" cy="524.959" cx="-53.751" fill="url(#button-retry_svg__f)"/><path d="M-40.224 519.51a13.797 11.335 0 01-15.13 9.66 13.797 11.335 0 01-12.289-12.079 13.797 11.335 0 0114.254-10.52 13.797 11.335 0 0113.305 11.328" fill="url(#button-retry_svg__g)"/><path d="M-45.173 520.913c.28.722.481 1.97.54 2.734.337 4.428-3.926 8.229-8.77 8.53-4.844.3-9.49-3.672-9.827-8.1-.337-4.43 3.623-8.423 8.467-8.724l.004 2.973s6.073-3.995 6.073-4.542c0-.547-6.095-4.245-6.095-4.245l.018 2.787c-6.853.426-12.024 5.75-11.543 12.076.481 6.326 6.434 11.114 13.287 10.688 6.853-.426 12.024-5.906 11.543-12.232a10.21 10.21 0 00-.687-3.04" opacity="0.721" fill="#520303" fill-opacity="0.31"/></g></svg>